<svg width="16" height="16" viewBox="0 0 16 16" fill="none" xmlns="http://www.w3.org/2000/svg">
<rect width="16" height="16" rx="8" fill="white"/>
<path d="M8.29522 12.5506C9.02339 12.417 9.63866 12.1549 10.2634 11.7074C10.6377 11.4378 11.1279 10.9262 11.3868 10.5336C11.5551 10.2765 11.8103 9.77557 11.8847 9.55606C11.9015 9.50522 11.9303 9.41957 11.9497 9.36863C12.0049 9.20535 12.0915 8.80552 12.1296 8.52908C12.1971 8.03204 12.1482 7.30886 12.0076 6.76082C11.9066 6.36485 11.5532 5.55697 11.4419 5.47352C11.4228 5.45831 11.3324 5.52228 11.1683 5.67082C10.6756 6.11114 9.97122 6.55085 9.42528 6.75228C9.29727 6.79904 9.18265 6.85062 9.1699 6.86429C9.14694 6.8889 9.40888 7.50152 9.6194 7.9281C9.64209 7.97229 9.68502 8.06604 9.71665 8.13902C9.74827 8.212 9.79976 8.32397 9.83102 8.38638C9.87368 8.47221 10.2024 9.18041 10.3111 9.41739C10.3198 9.43825 10.0137 9.46207 9.08656 9.50208C7.91647 9.55579 7.76613 9.56893 7.39102 9.66128C6.59625 9.85809 5.91265 10.2098 5.30124 10.7362C5.03412 10.9677 4.60912 11.4533 4.41553 11.7457C4.25975 11.9839 3.92289 12.6463 3.92517 12.7124C3.92673 12.7573 7.98498 12.6063 8.29522 12.5506Z" fill="black"/>
<path d="M7.82454 3.26738C7.09218 3.37578 6.46822 3.61637 5.82839 4.04204C5.44503 4.2985 4.9374 4.79291 4.66507 5.17628C4.48793 5.42745 4.21561 5.91922 4.13365 6.13602C4.11514 6.18625 4.08341 6.27086 4.06226 6.32109C4.00145 6.48237 3.90099 6.87896 3.85339 7.15392C3.76879 7.64833 3.79258 8.37276 3.9142 8.92534C4.00145 9.32457 4.32665 10.1442 4.43505 10.2314C4.45356 10.2473 4.5461 10.1865 4.71531 10.0437C5.22294 9.62069 5.94208 9.20559 6.49466 9.02317C6.62421 8.98086 6.74054 8.93327 6.75376 8.92005C6.77756 8.89626 6.53696 8.27494 6.34131 7.84134C6.32016 7.79639 6.2805 7.70121 6.25142 7.62718C6.22234 7.55315 6.17475 7.43946 6.14566 7.37601C6.106 7.28876 5.80195 6.56962 5.70149 6.32902C5.69355 6.30787 6.00025 6.29465 6.92826 6.28672C8.09951 6.2735 8.25021 6.26557 8.62829 6.18625C9.4294 6.01704 10.1247 5.6892 10.754 5.18421C11.029 4.96212 11.4705 4.49151 11.6741 4.20597C11.838 3.9733 12.1976 3.3229 12.1976 3.2568C12.1976 3.21186 8.13652 3.22243 7.82454 3.26738Z" fill="#0004FF"/>
</svg>
