<svg width="32" height="32" viewBox="0 0 32 32" fill="none" xmlns="http://www.w3.org/2000/svg">
<rect width="32" height="32" rx="10" fill="white"/>
<path d="M16.5909 25.1007C18.0473 24.8334 19.2778 24.3094 20.5273 23.4143C21.2758 22.8752 22.2563 21.8518 22.7741 21.0667C23.1108 20.5524 23.6211 19.5506 23.7699 19.1116C23.8034 19.0099 23.861 18.8386 23.8998 18.7368C24.0102 18.4102 24.1836 17.6106 24.2597 17.0577C24.3946 16.0636 24.2969 14.6172 24.0156 13.5212C23.8136 12.7292 23.1069 11.1135 22.8842 10.9466C22.8461 10.9161 22.6654 11.0441 22.337 11.3411C21.3516 12.2218 19.9429 13.1012 18.851 13.5041C18.595 13.5976 18.3658 13.7008 18.3403 13.7281C18.2944 13.7773 18.8182 15.0026 19.2393 15.8557C19.2847 15.9441 19.3705 16.1316 19.4338 16.2776C19.497 16.4235 19.6 16.6475 19.6625 16.7723C19.7478 16.9439 20.4053 18.3603 20.6228 18.8343C20.6401 18.876 20.028 18.9236 18.1736 19.0037C15.8334 19.1111 15.5327 19.1374 14.7825 19.3221C13.193 19.7157 11.8258 20.4191 10.603 21.472C10.0687 21.9349 9.21873 22.9061 8.83156 23.4909C8.52 23.9673 7.84627 25.2922 7.85084 25.4243C7.85394 25.5141 15.9704 25.2122 16.5909 25.1007Z" fill="black"/>
<path d="M15.6491 6.53476C14.1844 6.75156 12.9364 7.23275 11.6568 8.08409C10.8901 8.59701 9.87479 9.58583 9.33015 10.3526C8.97587 10.8549 8.43122 11.8384 8.2673 12.272C8.23028 12.3725 8.16683 12.5417 8.12453 12.6422C8.00291 12.9647 7.80197 13.7579 7.70679 14.3078C7.53758 15.2967 7.58517 16.7455 7.82841 17.8507C8.00291 18.6491 8.65331 20.2884 8.87011 20.4629C8.90712 20.4946 9.0922 20.373 9.43062 20.0874C10.4459 19.2414 11.8842 18.4112 12.9893 18.0463C13.2484 17.9617 13.4811 17.8665 13.5075 17.8401C13.5551 17.7925 13.0739 16.5499 12.6826 15.6827C12.6403 15.5928 12.561 15.4024 12.5028 15.2544C12.4447 15.1063 12.3495 14.8789 12.2913 14.752C12.212 14.5775 11.6039 13.1392 11.403 12.658C11.3871 12.6157 12.0005 12.5893 13.8565 12.5734C16.199 12.547 16.5004 12.5311 17.2566 12.3725C18.8588 12.0341 20.2495 11.3784 21.508 10.3684C22.0579 9.92425 22.941 8.98302 23.3481 8.41193C23.676 7.9466 24.3951 6.6458 24.3951 6.51361C24.3951 6.42371 16.273 6.44487 15.6491 6.53476Z" fill="#0004FF"/>
</svg>
